<?xml version="1.0" encoding="utf-8"?>
<!-- Generator: Adobe Illustrator 27.5.0, SVG Export Plug-In . SVG Version: 6.00 Build 0)  -->
<svg version="1.1" xmlns="http://www.w3.org/2000/svg" xmlns:xlink="http://www.w3.org/1999/xlink" x="0px" y="0px"
	 viewBox="0 0 750 500" style="enable-background:new 0 0 750 500;" xml:space="preserve">
<g id="BACKGROUND">
</g>
<g id="OBJECTS">
	<path style="opacity:0.3;fill:#7BE7DB;" d="M374.712,274.409c0.183-1.296,0.288-2.614,0.288-3.955
		c0-17.478-15.972-31.646-35.674-31.646c-3.572,0-7.018,0.471-10.272,1.338c-4.135-27.269-24.34-47.973-48.661-47.973
		c-0.362,0-0.72,0.023-1.082,0.032c-5.881-37.612-32.778-66.033-65.088-66.033c-33.881,0-61.807,31.254-65.79,71.585
		c-6.408-3.577-13.569-5.585-21.13-5.585c-24.051,0-44.083,20.245-48.523,47.066c-16.919,2.476-29.826,15.505-29.826,31.215
		c0,1.341,0.105,2.659,0.287,3.955H374.712z"/>
	<path style="opacity:0.3;fill:#7BE7DB;" d="M692.713,202.743c0.182-1.296,0.287-2.615,0.287-3.955
		c0-17.477-15.972-31.645-35.675-31.645c-3.571,0-7.018,0.471-10.271,1.338c-4.135-27.269-24.34-47.973-48.661-47.973
		c-0.362,0-0.721,0.023-1.081,0.032c-5.881-37.612-32.778-66.033-65.088-66.033c-33.882,0-61.808,31.254-65.79,71.585
		c-6.408-3.577-13.569-5.585-21.13-5.585c-24.051,0-44.083,20.245-48.524,47.066c-16.919,2.475-29.826,15.505-29.826,31.215
		c0,1.34,0.105,2.659,0.287,3.955H692.713z"/>
	<g>
		<defs>
			<rect id="SVGID_1_" width="750" height="500"/>
		</defs>
		<clipPath id="SVGID_00000134945894870564016060000000155395397268164796_">
			<use xlink:href="#SVGID_1_"  style="overflow:visible;"/>
		</clipPath>
		<g style="clip-path:url(#SVGID_00000134945894870564016060000000155395397268164796_);">
			<g>
				<path style="fill:#5FA7A7;" d="M607.709,248.598c0,0,31.084,0.676,35.138,67.911c4.055,67.235-3.378,82.777-3.378,82.777
					s-9.799,11.487-25.678,9.46L607.709,248.598z"/>
				<path style="fill:#2F3870;" d="M626.854,386.109c0,0,6.758,28.831-4.955,116.676c0,0-77.033-2.703-77.033,0
					c0,2.703-17.118-106.766-7.658-114.424S626.854,386.109,626.854,386.109z"/>
				<path style="fill:#252E60;" d="M583.51,420.336c10.539-0.946,21.994-2.414,32.012-5.973c4.226-1.502,8.381-3.421,12.233-5.713
					c0.316-0.188,0.634-0.38,0.952-0.571c-0.377-15.672-1.852-21.97-1.852-21.97s-80.186-5.406-89.646,2.252
					c-2.477,2.005-3.131,10.985-2.749,23.102C546.669,422.906,568.226,421.709,583.51,420.336z"/>
				<polygon style="fill:#252E60;" points="583.383,412.913 581.581,501.885 578.652,501.885 578.652,411.111 				"/>
				<path style="fill:#5FA7A7;" d="M553.313,240.912c0,0,50.258-6.25,53.637-2.788C610.327,241.587,560.83,251.893,553.313,240.912z
					"/>
				<path style="fill:#EBB084;" d="M562.239,247.512l0.306-26.283l35.299,1.986l0.917,20.018
					C598.761,243.233,566.671,251.026,562.239,247.512z"/>
				<path style="fill:#EBB084;" d="M566.823,226.119c0,0-14.211,8.71-18.795-11.766c-4.584-20.476-7.641-43.092,1.069-45.231
					c8.71-2.14,30.715,8.099,27.506,33.923C573.394,228.869,566.823,226.119,566.823,226.119z"/>
				<path style="fill:#4F4A4A;" d="M556.586,196.117c0,0,6.927-6.316,8.761,0.815c1.834,7.131-4.89,12.021-4.89,12.021
					s-7.742,20.578,9.168,25.876c16.911,5.297,39.73-2.241,43.397-32.191c3.668-29.951,1.02-49.918-17.318-53.585
					c-18.337-3.667-66.624-9.78-51.14,21.597c0,0,10.799,10.799,5.501,22.005C544.769,203.859,549.454,209.972,556.586,196.117z"/>
				<path style="fill:#5FA7A7;" d="M607.709,248.598c0,0,25.678,2.027,25.34,72.979c-0.338,70.951,5.406,79.736,5.406,79.736
					s-78.385,15.879-113.86,3.041l-1.689-70.952c0,0-12.501-80.412,34.124-81.088C603.654,251.639,607.709,248.598,607.709,248.598z
					"/>
				<path style="fill:#81CDD0;" d="M550.733,294.428c20.32,0.385,40.401-3.889,60.059-8.595c6.305-1.51,12.521-2.976,18.556-5.073
					c-7.036-31.001-21.639-32.162-21.639-32.162s-4.055,3.041-50.68,3.716c-22.196,0.322-30.988,18.715-34.113,37.9
					C531.929,292.944,541.284,294.249,550.733,294.428z"/>
				<path style="fill:#5FA7A7;" d="M603.307,376.127c-24.57,11.008-51.854,18.477-78.96,17.813l0.248,10.415
					c35.476,12.838,113.86-3.041,113.86-3.041s-3.507-5.363-4.879-41.554C624.028,366.103,613.7,371.47,603.307,376.127z"/>
				<path style="fill:#81CDD0;" d="M552.046,253.497c0,0,32.266,6.251,57.859-5.237l-2.956-10.136c0,0-23.735,7.518-53.637,2.788
					L552.046,253.497z"/>
				<path style="fill:#252E60;" d="M591.207,424.828c0,0-0.24,22.538,16.784,23.018c17.023,0.479,14.386-24.217,14.386-24.217
					L591.207,424.828z"/>
				<path style="fill:#252E60;" d="M574.091,424.828c0,0,0.24,22.538-16.784,23.018c-17.023,0.479-14.386-24.217-14.386-24.217
					L574.091,424.828z"/>
				<path style="fill:#38383E;" d="M594.999,206.398c-7.207-0.202-16.404-1.03-20.776-7.575c-1.784-2.671-2.761-5.429-5.538-7.281
					c-3.966-2.645-8.752-0.806-11.16,2.965c-0.321,0.501-0.604,1.023-0.872,1.551c0.701-0.613,6.964-5.855,8.694,0.874
					c1.834,7.131-4.89,12.021-4.89,12.021s-7.742,20.578,9.168,25.876c16.911,5.297,39.73-2.241,43.397-32.191
					c0.093-0.754,0.178-1.498,0.263-2.239C608.352,205.575,602.088,206.595,594.999,206.398z"/>
			</g>
			<g>
				<g>
					<defs>
						<path id="SVGID_00000080178733039101427510000009542292275090881939_" d="M511.868,382.667c0,0,32.548,26.016,30.745,120.167
							H434.497c0,0-20.947-45.724,7.996-117.914L511.868,382.667z"/>
					</defs>
					<clipPath id="SVGID_00000120550106797204072720000014600985848146351007_">
						<use xlink:href="#SVGID_00000080178733039101427510000009542292275090881939_"  style="overflow:visible;"/>
					</clipPath>
					<path style="clip-path:url(#SVGID_00000120550106797204072720000014600985848146351007_);fill:#81CDD0;" d="M511.868,382.667
						c0,0,32.548,26.016,30.745,120.167H434.497c0,0-20.947-45.724,7.996-117.914L511.868,382.667z"/>
					<g style="clip-path:url(#SVGID_00000120550106797204072720000014600985848146351007_);">
						<g>
							<path style="fill:#6EB7B7;" d="M420.953,397.933c39.782,10.482,82.301,7.718,120.353-7.939
								c1.985-0.817,1.117-4.087-0.898-3.258c-37.524,15.439-79.311,18.279-118.557,7.939
								C419.742,394.119,418.848,397.378,420.953,397.933L420.953,397.933z"/>
						</g>
					</g>
					<g style="clip-path:url(#SVGID_00000120550106797204072720000014600985848146351007_);">
						<g>
							<path style="fill:#6EB7B7;" d="M420.953,428.565c39.782,10.482,82.301,7.718,120.353-7.939
								c1.985-0.817,1.117-4.087-0.898-3.258c-37.524,15.439-79.311,18.279-118.557,7.939
								C419.742,424.752,418.848,428.011,420.953,428.565L420.953,428.565z"/>
						</g>
					</g>
					<g style="clip-path:url(#SVGID_00000120550106797204072720000014600985848146351007_);">
						<g>
							<path style="fill:#6EB7B7;" d="M420.953,459.198c39.782,10.481,82.301,7.718,120.353-7.939
								c1.985-0.817,1.117-4.087-0.898-3.258c-37.524,15.44-79.311,18.279-118.557,7.939
								C419.742,455.385,418.848,458.644,420.953,459.198L420.953,459.198z"/>
						</g>
					</g>
					<g style="clip-path:url(#SVGID_00000120550106797204072720000014600985848146351007_);">
						<g>
							<path style="fill:#6EB7B7;" d="M420.953,489.832c39.782,10.482,82.301,7.718,120.353-7.939
								c1.985-0.817,1.117-4.087-0.898-3.258c-37.524,15.439-79.311,18.279-118.557,7.939
								C419.742,486.019,418.848,489.277,420.953,489.832L420.953,489.832z"/>
						</g>
					</g>
					<path style="opacity:0.5;clip-path:url(#SVGID_00000120550106797204072720000014600985848146351007_);fill:#5FA7A7;" d="
						M524.804,400.84c-2.046,5.272-4.377,10.435-6.962,15.465c-17.323,33.713-48.968,66.128-88.654,67.072
						c2.169,12.596,5.31,19.457,5.31,19.457h108.116C543.633,449.569,533.659,418.117,524.804,400.84z"/>
					<path style="opacity:0.5;clip-path:url(#SVGID_00000120550106797204072720000014600985848146351007_);fill:#5FA7A7;" d="
						M510.854,382.7l-68.361,2.22c-0.728,1.815-1.412,3.605-2.078,5.386C496.552,400.912,511.924,385.201,510.854,382.7z"/>
				</g>
				<path style="fill:#E54A4A;" d="M442.493,384.92c0,0,30.633,18.02,69.375-2.253c0,0,27.48-89.646-12.163-90.998
					c-39.643-1.352-54.509,0-54.509,0S417.717,321.852,442.493,384.92z"/>
				<path style="opacity:0.5;fill:#A91818;" d="M456.477,342.462c12.106,3.23,25.521,1.178,36.231-5.197
					c10.907-6.493,19.518-16.048,26.807-26.666c-2.537-10.804-8.38-18.54-19.81-18.93c-39.643-1.352-54.509,0-54.509,0
					s-9.745,10.708-12.396,32.689C438.711,332.711,446.246,339.73,456.477,342.462z"/>
				<path style="fill:#EBB084;" d="M501.281,210.694c0,0,18.583,38.179-1.014,59.464c-19.596,21.285-41.895-10.811-41.895-10.811
					S472.563,194.139,501.281,210.694z"/>
				<path style="fill:#374281;" d="M501.845,247.634c0,0,18.92-6.082,10.136-25.678c-8.784-19.596-32.435-42.796-58.564-23.2
					c-26.128,19.597-6.307,42.346-13.965,47.752c-7.658,5.405-35.588,35.363-16.442,58.788c19.146,23.426-9.46,49.328,9.91,47.076
					c19.371-2.253,48.428-29.281,39.418-52.031s51.581-15.767,37.165-34.913C495.088,246.283,491.709,249.21,501.845,247.634z"/>
				<path style="fill:#2A3773;" d="M501.845,247.634c0,0,15.662-5.04,11.86-20.716c-1.46,6.406-5.494,11.838-11.33,15.126
					c-5.555,3.13-11.368,3.518-17.288,5.379c-9.231,2.901-4.705,10.285-2.444,16.65c1.73,4.871-0.251,8.56-4.601,11.183
					c-7.969,4.806-18.234,1.018-24.232,9.622c-3.481,4.994-5.189,11.587-11.199,14.321c-5.358,2.438-11.881,0.039-15.557-4.23
					c-4.353-5.057-5.929-12.443-7.161-18.797c-0.215-1.104-0.368-2.139-0.472-3.132c-4.135,10.234-4.89,21.886,3.588,32.257
					c19.146,23.426-9.46,49.328,9.91,47.076c19.371-2.253,48.428-29.281,39.418-52.031s51.581-15.767,37.165-34.913
					C495.088,246.282,491.709,249.21,501.845,247.634z"/>
				<path style="fill:#EBB084;" d="M611.5,297.333c-5.237,0-5.481,0.192-5.481,0.192c-45.718,17.919-73.939,15.531-87.321,12.167
					c-6.938-1.744-14.223,1.671-17.104,8.22c-3.646,8.286-1.242,13.613,1.723,16.753c2.19,2.319,5.162,3.745,8.314,4.233
					c56.136,8.697,102.498-28.196,102.498-28.196C619.872,311.209,616.737,297.333,611.5,297.333z"/>
				<g>
					<path style="fill:#EBB084;" d="M610.416,309.584c0,0,6.813-2.63,9.538-3.63s5.558-2.436,6.975-0.798
						c1.821,2.108-10.014,7.492-13.29,8.122L610.416,309.584z"/>
					<path style="fill:#EBB084;" d="M612.735,304.296c0,0,6.789-2.702,9.508-3.721c2.72-1.02,5.521-2.551,7.069-0.512
						c1.991,2.624-12.246,9.025-15.552,9.569L612.735,304.296z"/>
					<path style="fill:#EBB084;" d="M613.79,299.209c0,0,6.789-2.702,9.508-3.721c2.72-1.02,5.52-2.551,7.069-0.512
						c1.991,2.623-12.246,9.025-15.552,9.569L613.79,299.209z"/>
					<path style="fill:#EBB084;" d="M611.019,295.689c0,0,6.788-2.702,9.508-3.721c2.72-1.02,5.521-2.551,7.068-0.512
						c1.992,2.624-12.246,9.025-15.551,9.569L611.019,295.689z"/>
					<path style="fill:#EBB084;" d="M618.167,311.522c2.038-0.867-2.917-16.79-2.917-16.79s-2.146,0.984-3.763,1.491
						c0.517-0.606,1.433-1.629,2.139-2.514c0.6-0.752,1.097-2.13,1.106-2.758c0.023-1.512-0.943-2.614-2.081-2.182
						c-2.374,0.901-6.845,4.262-8.695,7.915c-2.009,3.965-0.047,8.783,0.573,10.115l0.001,0.002
						C608.673,317.666,616.13,312.388,618.167,311.522z"/>
				</g>
			</g>
			<g>
				<path style="fill:#4F4A4A;" d="M344.85,502.834h77.034c0,0,8.108-65.207,5.067-76.02c-3.041-10.812-79.398,1.014-79.736,2.027
					C346.877,429.855,344.85,502.834,344.85,502.834z"/>
				<g>
					<path style="fill:#498F5C;" d="M356.337,280.182c0,0,47.301-4.139,48.822-0.507C406.68,283.307,356.76,284.996,356.337,280.182
						z"/>
					<path style="fill:#EBB084;" d="M407.242,229.164c0,0,9.461-12.614,11.713-5.519c2.253,7.095-3.717,22.975-9.235,20.159
						C404.202,240.989,407.242,229.164,407.242,229.164z"/>
					<path style="fill:#EBB084;" d="M351.26,229.164c0,0-9.461-12.614-11.713-5.519c-2.253,7.095,3.717,22.975,9.235,20.159
						C354.3,240.989,351.26,229.164,351.26,229.164z"/>
					<rect x="359.378" y="245.044" style="fill:#EBB084;" width="41.219" height="49.667"/>
					<g>
						<path style="fill:#2F3870;" d="M384.636,269.504c-5.168,1.533-10.667,1.809-15.895,0.496
							c-3.036-0.763-5.853-2.017-8.091-4.192c-3.121-3.034-4.635-7.467-7.895-10.351c-3.564-3.152-9.214-4.57-10.582-9.127
							c-1.204-4.009,1.706-7.935,3.224-11.835c4.721-12.13-4.15-25.995-0.835-38.581c2.482-9.423,12.426-16.258,22.113-15.199
							c5.073,0.555,10.156,2.985,15.079,1.642c2.685-0.733,4.94-2.512,7.424-3.766c2.484-1.253,5.607-1.937,7.963-0.456
							c3.052,1.919,3.24,6.304,5.38,9.206c2.761,3.743,8.235,4.396,11.469,7.738c2.711,2.801,3.377,7.062,2.882,10.929
							c-0.495,3.867-1.986,7.523-3.052,11.273c-2.034,7.152-2.518,14.636-3.578,21.996c-1.061,7.36-2.788,14.831-6.954,20.991
							C400.633,264.189,391.164,267.567,384.636,269.504z"/>
					</g>
					<path style="fill:#54A26D;" d="M465.918,288.516c0,0,6.194,41.107,1.352,44.598
						C462.427,336.605,451.841,302.931,465.918,288.516z"/>
					<path style="fill:#EBB084;" d="M446.011,300.029l65.019-11.646l3.368,16.885l-66.042,20.037
						C448.355,325.306,440.534,313.143,446.011,300.029z"/>
					<path style="fill:#69BD8C;" d="M323.677,432.221c0,0,1.296-137.342,20.666-142.748c19.371-5.405,81.144-14.021,86.55,17.063
						c5.405,31.083,12.163,125.235,12.163,125.235S357.464,459.7,323.677,432.221z"/>
					<path style="fill:#69BD8C;" d="M400.147,285.813c0,0,42.346,6.307,65.771,2.703c0,0-11.262,37.841,1.352,44.598
						c0,0-20.272,13.064-44.147,8.109C399.246,336.268,400.147,285.813,400.147,285.813z"/>
					<path style="fill:#54A26D;" d="M356.337,280.182c0,0,35.476,2.534,48.822-0.507l1.521,7.095c0,0-33.28,6.758-51.862,0.338
						L356.337,280.182z"/>
					<path style="fill:#54A26D;" d="M324.309,421.035c-0.172-0.034-0.309-0.1-0.418-0.186c-0.173,7.084-0.214,11.371-0.214,11.371
						c33.787,27.479,119.379-0.45,119.379-0.45s-0.579-8.057-1.531-20.225C405.776,429.005,362.536,428.511,324.309,421.035z"/>
					<g>
						<path style="fill:#252F5E;" d="M406.727,245.429c-3.087,1.33-5.311-0.526-8.375-0.268c-3.65,0.307-5.772,4.513-8.477,6.543
							c-3.848,2.89-8.19,3.504-11.53-0.436c-3.45-4.067-3.014-15.837-10.656-11.714c-3.464,1.869-6.467,5.51-10.817,4.716
							c-5.242-0.956-7.726-6.28-7.262-11.081c0.497-5.148,1.04-9.428-2.514-13.719c-0.335-0.404-0.695-0.781-1.067-1.143
							c0.924,5.548,1.373,11.015-0.632,16.167c-1.518,3.9-4.428,7.826-3.224,11.835c1.368,4.557,7.019,5.975,10.582,9.127
							c3.26,2.885,4.774,7.317,7.895,10.351c2.238,2.176,5.055,3.43,8.091,4.191c5.228,1.314,10.727,1.038,15.895-0.495
							c6.528-1.936,15.997-5.315,18.65-9.238c3.353-4.957,5.125-10.764,6.242-16.678
							C408.678,244.351,407.751,244.987,406.727,245.429z"/>
					</g>
				</g>
				<g>
					<path style="fill:#EBB084;" d="M512.582,301.417c0,0,6.814-2.63,9.539-3.63s5.558-2.436,6.974-0.797
						c1.822,2.107-10.013,7.491-13.29,8.122L512.582,301.417z"/>
					<path style="fill:#EBB084;" d="M514.901,296.129c0,0,6.789-2.701,9.509-3.721c2.719-1.02,5.519-2.551,7.068-0.511
						c1.992,2.623-12.246,9.024-15.551,9.568L514.901,296.129z"/>
					<path style="fill:#EBB084;" d="M515.956,291.042c0,0,6.789-2.701,9.509-3.721c2.719-1.02,5.521-2.551,7.068-0.511
						c1.992,2.623-12.246,9.025-15.551,9.568L515.956,291.042z"/>
					<path style="fill:#EBB084;" d="M513.185,287.522c0,0,6.789-2.701,9.509-3.721c2.719-1.02,5.521-2.551,7.068-0.511
						c1.992,2.623-12.246,9.025-15.551,9.569L513.185,287.522z"/>
					<path style="fill:#EBB084;" d="M520.334,303.354c2.037-0.866-2.917-16.789-2.917-16.789s-2.146,0.984-3.763,1.491
						c0.516-0.607,1.433-1.629,2.139-2.515c0.6-0.752,1.096-2.13,1.105-2.757c0.023-1.513-0.943-2.615-2.081-2.183
						c-2.373,0.902-6.844,4.262-8.694,7.915c-2.009,3.965-0.048,8.783,0.573,10.115c0,0.001,0,0.001,0.001,0.002
						C510.84,309.499,518.297,304.221,520.334,303.354z"/>
				</g>
			</g>
			<g>
				<path style="fill:#CB961B;" d="M410.736,291.021c0,0-9.913,15.587,0.355,26.526
					C411.092,317.547,426.716,301.338,410.736,291.021z"/>
				<path style="fill:#EBB084;" d="M414.131,294.443c0,0-24.595-5.798-22.404,11.18c2.189,16.978,24.291,17.534,24.579,2.167
					C416.596,292.423,414.131,294.443,414.131,294.443z"/>
				<path style="fill:#81CDD0;" d="M547.972,256.286c0,0-61.127,25.258-137.235,34.734c0,0,3.847,19.263,0.355,26.526
					c0,0,125.291-13.776,149.635-36.334L547.972,256.286z"/>
			</g>
			<g>
				<path style="fill:#4F4A4A;" d="M344.85,502.834h77.034c0,0,8.108-65.207,5.067-76.02c-3.041-10.812-79.398,1.014-79.736,2.027
					C346.877,429.855,344.85,502.834,344.85,502.834z"/>
				<g>
					<path style="fill:#498F5C;" d="M356.337,280.182c0,0,47.301-4.139,48.822-0.507C406.68,283.307,356.76,284.996,356.337,280.182
						z"/>
					<path style="fill:#EBB084;" d="M407.242,229.164c0,0,9.461-12.614,11.713-5.519c2.253,7.095-3.717,22.975-9.235,20.159
						C404.202,240.989,407.242,229.164,407.242,229.164z"/>
					<path style="fill:#EBB084;" d="M351.26,229.164c0,0-9.461-12.614-11.713-5.519c-2.253,7.095,3.717,22.975,9.235,20.159
						C354.3,240.989,351.26,229.164,351.26,229.164z"/>
					<rect x="359.378" y="245.044" style="fill:#EBB084;" width="41.219" height="49.667"/>
					<g>
						<path style="fill:#2F3870;" d="M384.636,269.504c-5.168,1.533-10.667,1.809-15.895,0.496
							c-3.036-0.763-5.853-2.017-8.091-4.192c-3.121-3.034-4.635-7.467-7.895-10.351c-3.564-3.152-9.214-4.57-10.582-9.127
							c-1.204-4.009,1.706-7.935,3.224-11.835c4.721-12.13-4.15-25.995-0.835-38.581c2.482-9.423,12.426-16.258,22.113-15.199
							c5.073,0.555,10.156,2.985,15.079,1.642c2.685-0.733,4.94-2.512,7.424-3.766c2.484-1.253,5.607-1.937,7.963-0.456
							c3.052,1.919,3.24,6.304,5.38,9.206c2.761,3.743,8.235,4.396,11.469,7.738c2.711,2.801,3.377,7.062,2.882,10.929
							c-0.495,3.867-1.986,7.523-3.052,11.273c-2.034,7.152-2.518,14.636-3.578,21.996c-1.061,7.36-2.788,14.831-6.954,20.991
							C400.633,264.189,391.164,267.567,384.636,269.504z"/>
					</g>
					<path style="fill:#54A26D;" d="M465.918,288.516c0,0,6.194,41.107,1.352,44.598
						C462.427,336.605,451.841,302.931,465.918,288.516z"/>
					<path style="fill:#EBB084;" d="M446.011,300.029l65.019-11.646l3.368,16.885l-66.042,20.037
						C448.355,325.306,440.534,313.143,446.011,300.029z"/>
					<path style="fill:#69BD8C;" d="M323.677,432.221c0,0,1.296-137.342,20.666-142.748c19.371-5.405,81.144-14.021,86.55,17.063
						c5.405,31.083,12.163,125.235,12.163,125.235S357.464,459.7,323.677,432.221z"/>
					<path style="fill:#69BD8C;" d="M400.147,285.813c0,0,42.346,6.307,65.771,2.703c0,0-11.262,37.841,1.352,44.598
						c0,0-20.272,13.064-44.147,8.109C399.246,336.268,400.147,285.813,400.147,285.813z"/>
					<path style="fill:#54A26D;" d="M356.337,280.182c0,0,35.476,2.534,48.822-0.507l1.521,7.095c0,0-33.28,6.758-51.862,0.338
						L356.337,280.182z"/>
					<path style="fill:#54A26D;" d="M324.309,421.035c-0.172-0.034-0.309-0.1-0.418-0.186c-0.173,7.084-0.214,11.371-0.214,11.371
						c33.787,27.479,119.379-0.45,119.379-0.45s-0.579-8.057-1.531-20.225C405.776,429.005,362.536,428.511,324.309,421.035z"/>
					<g>
						<path style="fill:#252F5E;" d="M406.727,245.429c-3.087,1.33-5.311-0.526-8.375-0.268c-3.65,0.307-5.772,4.513-8.477,6.543
							c-3.848,2.89-8.19,3.504-11.53-0.436c-3.45-4.067-3.014-15.837-10.656-11.714c-3.464,1.869-6.467,5.51-10.817,4.716
							c-5.242-0.956-7.726-6.28-7.262-11.081c0.497-5.148,1.04-9.428-2.514-13.719c-0.335-0.404-0.695-0.781-1.067-1.143
							c0.924,5.548,1.373,11.015-0.632,16.167c-1.518,3.9-4.428,7.826-3.224,11.835c1.368,4.557,7.019,5.975,10.582,9.127
							c3.26,2.885,4.774,7.317,7.895,10.351c2.238,2.176,5.055,3.43,8.091,4.191c5.228,1.314,10.727,1.038,15.895-0.495
							c6.528-1.936,15.997-5.315,18.65-9.238c3.353-4.957,5.125-10.764,6.242-16.678
							C408.678,244.351,407.751,244.987,406.727,245.429z"/>
					</g>
				</g>
				<g>
					<path style="fill:#EBB084;" d="M512.582,301.417c0,0,6.814-2.63,9.539-3.63s5.558-2.436,6.974-0.797
						c1.822,2.107-10.013,7.491-13.29,8.122L512.582,301.417z"/>
					<path style="fill:#EBB084;" d="M514.901,296.129c0,0,6.789-2.701,9.509-3.721c2.719-1.02,5.519-2.551,7.068-0.511
						c1.992,2.623-12.246,9.024-15.551,9.568L514.901,296.129z"/>
					<path style="fill:#EBB084;" d="M515.956,291.042c0,0,6.789-2.701,9.509-3.721c2.719-1.02,5.521-2.551,7.068-0.511
						c1.992,2.623-12.246,9.025-15.551,9.568L515.956,291.042z"/>
					<path style="fill:#EBB084;" d="M513.185,287.522c0,0,6.789-2.701,9.509-3.721c2.719-1.02,5.521-2.551,7.068-0.511
						c1.992,2.623-12.246,9.025-15.551,9.569L513.185,287.522z"/>
					<path style="fill:#EBB084;" d="M520.334,303.354c2.037-0.866-2.917-16.789-2.917-16.789s-2.146,0.984-3.763,1.491
						c0.516-0.607,1.433-1.629,2.139-2.515c0.6-0.752,1.096-2.13,1.105-2.757c0.023-1.513-0.943-2.615-2.081-2.183
						c-2.373,0.902-6.844,4.262-8.694,7.915c-2.009,3.965-0.048,8.783,0.573,10.115c0,0.001,0,0.001,0.001,0.002
						C510.84,309.499,518.297,304.221,520.334,303.354z"/>
				</g>
			</g>
			<g>
				<path style="fill:#5FA7A7;" d="M415.802,324.217c0,0,8.446,25.678,4.73,27.029C416.815,352.598,412.085,328.272,415.802,324.217
					z"/>
				<g>
					<path style="fill:#EBB084;" d="M610.416,309.584c0,0,6.813-2.63,9.538-3.63s5.558-2.436,6.975-0.798
						c1.821,2.108-10.014,7.492-13.29,8.122L610.416,309.584z"/>
					<path style="fill:#EBB084;" d="M612.735,304.296c0,0,6.789-2.702,9.508-3.721c2.72-1.02,5.521-2.551,7.069-0.512
						c1.991,2.624-12.246,9.025-15.552,9.569L612.735,304.296z"/>
					<path style="fill:#EBB084;" d="M613.79,299.209c0,0,6.789-2.702,9.508-3.721c2.72-1.02,5.52-2.551,7.069-0.512
						c1.991,2.623-12.246,9.025-15.552,9.569L613.79,299.209z"/>
					<path style="fill:#EBB084;" d="M611.019,295.689c0,0,6.788-2.702,9.508-3.721c2.72-1.02,5.521-2.551,7.068-0.512
						c1.992,2.624-12.246,9.025-15.551,9.569L611.019,295.689z"/>
					<path style="fill:#EBB084;" d="M618.167,311.522c2.038-0.867-2.917-16.79-2.917-16.79s-2.146,0.984-3.763,1.491
						c0.517-0.606,1.433-1.629,2.139-2.514c0.6-0.752,1.097-2.13,1.106-2.758c0.023-1.512-0.943-2.614-2.081-2.182
						c-2.374,0.901-6.845,4.262-8.695,7.915c-2.009,3.965-0.047,8.783,0.573,10.115l0.001,0.002
						C608.673,317.666,616.13,312.388,618.167,311.522z"/>
					<g>
						<path style="fill:#EBB084;" d="M421.166,344.084c0,0,6.813-2.63,9.538-3.63c2.726-1,5.558-2.436,6.975-0.798
							c1.821,2.108-10.014,7.492-13.29,8.122L421.166,344.084z"/>
						<path style="fill:#EBB084;" d="M423.485,338.796c0,0,6.789-2.702,9.508-3.721c2.72-1.02,5.521-2.551,7.069-0.512
							c1.991,2.624-12.246,9.025-15.552,9.569L423.485,338.796z"/>
						<path style="fill:#EBB084;" d="M424.54,333.709c0,0,6.789-2.702,9.508-3.721c2.72-1.02,5.521-2.551,7.069-0.512
							c1.991,2.623-12.246,9.025-15.552,9.569L424.54,333.709z"/>
						<path style="fill:#EBB084;" d="M421.77,330.189c0,0,6.789-2.702,9.508-3.721c2.72-1.02,5.521-2.551,7.068-0.512
							c1.992,2.624-12.246,9.025-15.551,9.569L421.77,330.189z"/>
						<path style="fill:#EBB084;" d="M428.917,346.022c2.038-0.867-2.917-16.79-2.917-16.79s-2.147,0.984-3.763,1.491
							c0.517-0.606,1.433-1.629,2.139-2.514c0.6-0.752,1.097-2.13,1.106-2.758c0.023-1.512-0.943-2.614-2.081-2.182
							c-2.374,0.901-6.845,4.262-8.695,7.915c-2.009,3.965-0.047,8.783,0.573,10.115l0.001,0.002
							C419.423,352.166,426.88,346.888,428.917,346.022z"/>
					</g>
				</g>
				<path style="fill:#EEB81D;" d="M338.093,408.908c0,0,29.282,23.425-6.757,93.701h-74.33c0,0-30.408-77.033-11.149-93.251
					S338.093,408.908,338.093,408.908z"/>
				<path style="fill:#DCA921;" d="M277.852,444.672c20.66,1.044,41.584-1.123,60.624-9.636c3.389-1.515,6.673-3.204,9.858-5.046
					c-2.731-15.065-10.241-21.082-10.241-21.082s-72.979-15.768-92.237,0.45c-5.796,4.881-7.09,15.271-6.072,27.409
					C251.908,441.647,264.797,444.012,277.852,444.672z"/>
				<path style="fill:#DCA921;" d="M307.91,451.479c0,0-4.279,27.028,12.839,25.227c17.119-1.802,15.091-29.507,15.091-29.507
					L307.91,451.479z"/>
				<path style="fill:#DCA921;" d="M281.831,451.479c0,0,4.279,27.028-12.839,25.227c-17.119-1.802-15.091-29.507-15.091-29.507
					L281.831,451.479z"/>
				<polygon style="fill:#DCA921;" points="296.874,428.504 293.27,502.834 290.116,502.834 289.215,429.405 				"/>
				<path style="fill:#81CDD0;" d="M315.343,314.757c0,0,23.858,14.379,22.975,34.687c-1.351,31.084,18.921,64.87,18.921,64.87
					s-21.624,27.029-113.072,10.361c0,0-1.802-107.216,13.965-116.676C273.898,298.539,315.343,314.757,315.343,314.757z"/>
				<path style="fill:#5FA7A7;" d="M262.299,349.443c-0.005-0.849,1.133-1.379,1.73-0.716c6.548,7.27,14.442,12.14,24.457,12.183
					c7.668,0.033,15.346-1.711,21.726-6.064c6.066-4.139,10.764-10.065,14.409-16.375c2.105-3.643,3.929-7.498,5.464-11.484
					c-6.463-7.646-14.066-12.229-14.066-12.229s-41.445-16.218-57.212-6.758c-6.911,4.147-10.446,27.073-12.237,51.521
					C254.538,360.287,262.35,358.576,262.299,349.443z"/>
				<path style="fill:#4F4A4A;" d="M287.075,217.113c0,0,19.934-11.149,29.395,12.501c9.46,23.65,35.476,47.976,18.92,62.505
					c-16.556,14.528,9.122,57.438-36.152,63.856c-45.273,6.42-63.181-77.033-63.181-77.033s6.757-73.316,46.626-59.802
					L287.075,217.113z"/>
				<path style="fill:#4F4A4A;" d="M280.74,221.928c0,0-7.602-8.616-5.659-8.954c1.943-0.338,6.25,6.166,6.25,6.166
					s-2.027-8.109,1.014-8.024c3.041,0.085,2.534,7.602,3.125,7.518c0.591-0.085-1.013-6.419,3.379-7.095
					c4.392-0.676-1.774,13.092-1.774,13.092L280.74,221.928z"/>
				<path style="fill:#81CDD0;" d="M329.646,312.054c0,0,1.689,32.097,86.155,12.163c0,0,0.338,20.609,4.73,27.029
					c0,0-42.909,22.637-85.48,8.108C335.052,359.354,322.889,331.987,329.646,312.054z"/>
				<path style="fill:#38383E;" d="M337.55,268.137c-0.183,1.732-0.501,3.451-0.994,5.148c-2.002,6.884-8.04,8.898-12.343,13.993
					c-8.164,9.668-3.409,24.491-12.993,33.791c-7.623,7.398-19.243,8.208-29.196,6.482c-13.473-2.337-23.232-12.536-31.244-22.977
					c-4.93-6.424-9.217-13.278-13.383-20.211c4.903,18.397,23.619,77.032,61.841,71.612c45.274-6.419,19.596-49.328,36.152-63.856
					C342.676,285.726,341.715,277.434,337.55,268.137z"/>
			</g>
			<g>
				<path style="fill:#54A26D;" d="M294.247,287.276c0,0-6.194,41.107-1.351,44.599
					C297.738,335.366,308.325,301.692,294.247,287.276z"/>
				<path style="fill:#EBB084;" d="M314.155,298.791l-65.019-11.646c0,0-14.307-17.477-20.851,2.04
					c-6.543,19.517,17.482,14.846,17.482,14.846l66.042,20.037C311.81,324.067,319.631,311.903,314.155,298.791z"/>
				<path style="fill:#69BD8C;" d="M355.211,285.7c0,0-37.539,5.181-60.964,1.576c0,0,11.262,37.841-1.351,44.599
					c0,0,29.205,1.802,53.081-3.153C369.852,323.766,355.211,285.7,355.211,285.7z"/>
			</g>
			<g>
				<path style="fill:#2F3870;" d="M141.118,398.435c0,0-17.907,36.827,7.095,104.399h94.602c0,0,21.962-67.91,1.689-93.25
					C224.232,384.244,141.118,398.435,141.118,398.435z"/>
				<path style="fill:#252E60;" d="M159.325,454.367c18.402,6.482,39.236,6.077,57.743,0.217c5.366-1.699,10.469-4.058,15.624-6.296
					c5.394-2.342,10.39-5.103,14.813-9.017c1.804-1.596,3.529-3.264,5.242-4.93c-0.834-9.73-3.261-18.53-8.243-24.758
					c-20.272-25.34-103.387-11.149-103.387-11.149s-6.817,14.032-6.162,40.657C141.756,446.014,150.129,451.128,159.325,454.367z"/>
				<g>
					<path style="fill:#EBB084;" d="M340.79,318.366c0,0,7.302-0.125,10.205-0.126c2.903-0.001,6.057-0.375,6.823,1.65
						c0.985,2.607-11.979,3.59-15.273,3.054L340.79,318.366z"/>
					<path style="fill:#EBB084;" d="M344.788,314.199c0,0,7.304-0.201,10.208-0.223c2.904-0.021,6.061-0.495,6.813,1.952
						c0.968,3.148-14.603,4.261-17.894,3.635L344.788,314.199z"/>
					<path style="fill:#EBB084;" d="M347.528,309.786c0,0,7.304-0.201,10.208-0.223c2.904-0.022,6.061-0.495,6.813,1.952
						c0.968,3.148-14.603,4.261-17.894,3.635L347.528,309.786z"/>
					<path style="fill:#EBB084;" d="M346.138,305.527c0,0,7.304-0.201,10.208-0.223c2.904-0.021,6.061-0.495,6.813,1.952
						c0.968,3.148-14.603,4.261-17.894,3.635L346.138,305.527z"/>
					<path style="fill:#EBB084;" d="M347.402,322.853c2.212-0.112,3.038-16.768,3.038-16.768s-2.354,0.186-4.046,0.105
						c0.693-0.392,1.906-1.037,2.873-1.625c0.821-0.5,1.762-1.623,1.987-2.209c0.542-1.411,0.014-2.779-1.203-2.765
						c-2.539,0.03-7.893,1.647-10.888,4.44c-3.25,3.032-3.066,8.23-2.941,9.695v0.002
						C336.374,325.356,345.191,322.965,347.402,322.853z"/>
				</g>
				<path style="fill:#A91818;" d="M322.382,298.934c0,0-8.954,27.366,1.52,35.138C323.902,334.071,340.627,304.846,322.382,298.934
					z"/>
				<g>
					<defs>
						<path id="SVGID_00000080927996671160033610000008915569454798611846_" d="M165.106,307.999c0,0-35.138-3.829-41.67,11.939
							c-6.532,15.767,21.398,25.452,21.398,25.452l-8.108,27.48c0,0-66.897-12.389-46.626-64.194s85.367-30.408,85.367-30.408
							L165.106,307.999z"/>
					</defs>
					<clipPath id="SVGID_00000095310608797113764140000015051743729899424924_">
						<use xlink:href="#SVGID_00000080927996671160033610000008915569454798611846_"  style="overflow:visible;"/>
					</clipPath>
					<path style="clip-path:url(#SVGID_00000095310608797113764140000015051743729899424924_);fill:#E54A4A;" d="M165.106,307.999
						c0,0-35.138-3.829-41.67,11.939c-6.532,15.767,21.398,25.452,21.398,25.452l-8.108,27.48c0,0-66.897-12.389-46.626-64.194
						s85.367-30.408,85.367-30.408L165.106,307.999z"/>
					<g style="clip-path:url(#SVGID_00000095310608797113764140000015051743729899424924_);">
						<g>
							<path style="fill:#E86C6C;" d="M146.858,266.87c-5.917,16.718-5.909,34.779,0.024,51.491c0.724,2.038,3.989,1.16,3.258-0.898
								c-5.753-16.205-5.762-33.483-0.024-49.694C150.845,265.709,147.58,264.831,146.858,266.87L146.858,266.87z"/>
						</g>
					</g>
					<g style="clip-path:url(#SVGID_00000095310608797113764140000015051743729899424924_);">
						<g>
							<path style="fill:#E86C6C;" d="M105.964,279.397c5.778,19.632,16.74,37.214,31.865,51.004
								c1.606,1.465,4.002-0.918,2.389-2.389c-14.712-13.414-25.374-30.411-30.996-49.514
								C108.608,276.414,105.348,277.302,105.964,279.397L105.964,279.397z"/>
						</g>
					</g>
					<g style="clip-path:url(#SVGID_00000095310608797113764140000015051743729899424924_);">
						<g>
							<path style="fill:#E86C6C;" d="M126.428,323.979c-17.18,7.178-36.615,6.04-52.769-3.265
								c-1.891-1.089-3.592,1.831-1.705,2.918c16.861,9.711,37.398,11.113,55.372,3.604
								C129.306,326.41,128.438,323.14,126.428,323.979L126.428,323.979z"/>
						</g>
					</g>
					<g style="clip-path:url(#SVGID_00000095310608797113764140000015051743729899424924_);">
						<g>
							<path style="fill:#E86C6C;" d="M132.222,334.318c-5.268,17.351-17.506,31.576-33.803,39.491
								c-1.959,0.952-0.246,3.865,1.705,2.918c17.063-8.288,29.85-23.374,35.355-41.511
								C136.115,333.126,132.853,332.239,132.222,334.318L132.222,334.318z"/>
						</g>
					</g>
				</g>
				<path style="fill:#A91818;" d="M171.694,268.019c0,0,25.34-8.953,59.295-1.014l-9.291,9.46l-32.436,6.251L171.694,268.019z"/>
				<path style="fill:#EBB084;" d="M212.407,193.35c0,0,26.354-4.054,22.524,33.787s-30.633,34.913-30.633,34.913L212.407,193.35z"
					/>
				<rect x="183.351" y="248.76" style="fill:#EBB084;" width="35.814" height="40.543"/>
				<path style="fill:#2F3870;" d="M228.624,226.912c0,0-9.46-7.884-10.586,4.955c-1.126,12.839,7.658,9.911,7.658,9.911
					s-2.928,23.876-28.605,25.002c-25.678,1.127-41.22-15.316-31.309-50.679c9.911-35.363,27.93-45.049,46.851-41.895
					C231.553,177.358,237.409,212.045,228.624,226.912z"/>
				<path style="fill:#E54A4A;" d="M177.607,196.391c0,8.957,7.034,16.217,15.711,16.217c8.677,0,15.71-7.261,15.71-16.217
					c0-8.956-7.034-16.217-15.71-16.217C184.641,180.174,177.607,187.435,177.607,196.391z"/>
				<g>
					<defs>
						<path id="SVGID_00000063634925774658680580000001903275658809017488_" d="M170.061,280.745c0,0-32.886,22.523-42.346,150.012
							c0,0,50.342,29.394,129.627,2.815c0,0,4.167-142.917-21.962-152.377L170.061,280.745z"/>
					</defs>
					<clipPath id="SVGID_00000075138474723809641070000014143499808991518383_">
						<use xlink:href="#SVGID_00000063634925774658680580000001903275658809017488_"  style="overflow:visible;"/>
					</clipPath>
					<path style="clip-path:url(#SVGID_00000075138474723809641070000014143499808991518383_);fill:#E54A4A;" d="M170.061,280.745
						c0,0-32.886,22.523-42.346,150.012c0,0,50.342,29.394,129.627,2.815c0,0,4.167-142.917-21.962-152.377L170.061,280.745z"/>
					<g style="clip-path:url(#SVGID_00000075138474723809641070000014143499808991518383_);">
						<g>
							<path style="fill:#E86C6C;" d="M116.741,412.989c22.144,18.32,52.771,24.65,80.906,24.731
								c29.846,0.085,59.616-8.488,84.99-24.129c1.851-1.141,0.155-4.064-1.705-2.918c-24.098,14.854-51.673,22.828-79.942,23.626
								c-28.028,0.791-59.785-5.438-81.86-23.699C117.464,409.223,115.06,411.6,116.741,412.989L116.741,412.989z"/>
						</g>
					</g>
					<g style="clip-path:url(#SVGID_00000075138474723809641070000014143499808991518383_);">
						<g>
							<path style="fill:#E86C6C;" d="M116.741,391.366c22.145,18.32,52.771,24.65,80.906,24.73
								c29.846,0.086,59.616-8.488,84.99-24.128c1.851-1.141,0.155-4.065-1.705-2.918c-24.098,14.853-51.673,22.827-79.942,23.625
								c-28.029,0.791-59.785-5.437-81.86-23.698C117.464,387.6,115.06,389.977,116.741,391.366L116.741,391.366z"/>
						</g>
					</g>
					<g style="clip-path:url(#SVGID_00000075138474723809641070000014143499808991518383_);">
						<g>
							<path style="fill:#E86C6C;" d="M116.741,369.743c22.144,18.319,52.772,24.649,80.906,24.73
								c29.846,0.086,59.616-8.488,84.99-24.128c1.851-1.141,0.155-4.064-1.705-2.918c-24.098,14.854-51.673,22.827-79.942,23.625
								c-28.028,0.79-59.785-5.436-81.86-23.698C117.464,365.977,115.06,368.353,116.741,369.743L116.741,369.743z"/>
						</g>
					</g>
					<g style="clip-path:url(#SVGID_00000075138474723809641070000014143499808991518383_);">
						<g>
							<path style="fill:#E86C6C;" d="M116.741,348.12c22.145,18.318,52.771,24.649,80.906,24.73
								c29.846,0.085,59.616-8.489,84.99-24.129c1.851-1.141,0.155-4.065-1.705-2.918c-24.098,14.854-51.673,22.828-79.942,23.626
								c-28.028,0.791-59.784-5.438-81.86-23.698C117.464,344.353,115.06,346.73,116.741,348.12L116.741,348.12z"/>
						</g>
					</g>
					<g style="clip-path:url(#SVGID_00000075138474723809641070000014143499808991518383_);">
						<g>
							<path style="fill:#E86C6C;" d="M116.741,326.496c22.145,18.32,52.771,24.65,80.906,24.73
								c29.846,0.086,59.616-8.488,84.99-24.128c1.851-1.141,0.155-4.064-1.705-2.918c-24.098,14.854-51.673,22.827-79.942,23.625
								c-28.029,0.791-59.785-5.437-81.86-23.698C117.464,322.729,115.06,325.106,116.741,326.496L116.741,326.496z"/>
						</g>
					</g>
					<g style="clip-path:url(#SVGID_00000075138474723809641070000014143499808991518383_);">
						<g>
							<path style="fill:#E86C6C;" d="M116.741,304.873c22.144,18.319,52.772,24.65,80.906,24.73
								c29.846,0.086,59.616-8.488,84.99-24.128c1.851-1.141,0.155-4.064-1.705-2.918c-24.098,14.854-51.673,22.827-79.942,23.625
								c-28.028,0.79-59.785-5.436-81.86-23.698C117.464,301.106,115.06,303.483,116.741,304.873L116.741,304.873z"/>
						</g>
					</g>
					<g style="clip-path:url(#SVGID_00000075138474723809641070000014143499808991518383_);">
						<g>
							<path style="fill:#E86C6C;" d="M116.741,283.25c22.145,18.318,52.771,24.649,80.906,24.73
								c29.846,0.085,59.616-8.488,84.99-24.129c1.851-1.141,0.155-4.064-1.705-2.918c-24.098,14.854-51.673,22.828-79.942,23.626
								c-28.028,0.791-59.784-5.438-81.86-23.698C117.464,279.483,115.06,281.86,116.741,283.25L116.741,283.25z"/>
						</g>
					</g>
					<g style="clip-path:url(#SVGID_00000075138474723809641070000014143499808991518383_);">
						<g>
							<path style="fill:#E86C6C;" d="M116.741,261.626c22.145,18.32,52.771,24.65,80.906,24.73
								c29.846,0.086,59.616-8.488,84.99-24.128c1.851-1.141,0.155-4.064-1.705-2.918c-24.098,14.854-51.673,22.827-79.942,23.625
								c-28.029,0.791-59.785-5.436-81.86-23.698C117.464,257.859,115.06,260.236,116.741,261.626L116.741,261.626z"/>
						</g>
					</g>
					<path style="opacity:0.5;clip-path:url(#SVGID_00000075138474723809641070000014143499808991518383_);fill:#A91818;" d="
						M246.548,401.255c-12.906,9.012-28.076,15.133-43.376,18.645c-14.448,3.317-29.427,4.812-44.24,4.054
						c-10.198-0.522-20.557-2.114-30.19-5.623c-0.367,4.028-0.709,8.167-1.025,12.426c0,0,50.342,29.394,129.627,2.815
						c0,0,0.521-17.895,0.038-41.437C254.058,395.464,250.455,398.526,246.548,401.255z"/>
				</g>
				<path style="fill:#D42727;" d="M230.99,267.005c0,0-22.806,11.318-59.295,1.014c0,0-5.575,7.939-1.014,13.008
					c0,0,6.419,14.359,64.701,0.169C235.382,281.195,235.044,268.525,230.99,267.005z"/>
				<g>
					<defs>
						<path id="SVGID_00000022534457841082780790000005237822170727485863_" d="M235.382,281.195c0,0,15.542,2.703,28.831,10.136
							c13.29,7.433,61.041,10.361,61.041,10.361s13.29,13.515,1.577,29.957c0,0-45.499,10.587-79.961-4.505L235.382,281.195z"/>
					</defs>
					<clipPath id="SVGID_00000126314373085680613080000012495938902140306333_">
						<use xlink:href="#SVGID_00000022534457841082780790000005237822170727485863_"  style="overflow:visible;"/>
					</clipPath>
					<path style="clip-path:url(#SVGID_00000126314373085680613080000012495938902140306333_);fill:#E54A4A;" d="M235.382,281.195
						c0,0,15.542,2.703,28.831,10.136c13.29,7.433,61.041,10.361,61.041,10.361s13.29,13.515,1.577,29.957
						c0,0-45.499,10.587-79.961-4.505L235.382,281.195z"/>
					<g style="clip-path:url(#SVGID_00000126314373085680613080000012495938902140306333_);">
						<g>
							<path style="fill:#E86C6C;" d="M257.914,279.327c6.571,23.995-1.984,50.327-21.261,66.008
								c-1.691,1.375,0.714,3.751,2.389,2.389c20.179-16.413,28.993-44.234,22.13-69.295
								C260.597,276.33,257.337,277.222,257.914,279.327L257.914,279.327z"/>
						</g>
					</g>
					<g style="clip-path:url(#SVGID_00000126314373085680613080000012495938902140306333_);">
						<g>
							<path style="fill:#E86C6C;" d="M285.281,285.408c6.571,23.995-1.983,50.328-21.262,66.008
								c-1.691,1.375,0.714,3.751,2.389,2.389c20.18-16.412,28.994-44.234,22.131-69.295
								C287.964,282.411,284.705,283.303,285.281,285.408L285.281,285.408z"/>
						</g>
					</g>
					<g style="clip-path:url(#SVGID_00000126314373085680613080000012495938902140306333_);">
						<g>
							<path style="fill:#E86C6C;" d="M314.675,286.422c6.571,23.995-1.983,50.328-21.261,66.008
								c-1.691,1.375,0.714,3.751,2.389,2.389c20.18-16.413,28.993-44.235,22.13-69.295
								C317.358,283.425,314.099,284.316,314.675,286.422L314.675,286.422z"/>
						</g>
					</g>
				</g>
				<g>
					<path style="fill:#374281;" d="M190.401,184.697c6.48-1.334,13.653-0.388,18.884,3.662c5.232,4.049,7.972,11.506,5.519,17.65
						c-2.473,6.195-9.034,9.504-14.799,12.857c-5.766,3.353-11.8,8.325-11.785,14.995c0.013,5.547,4.343,10.489,3.987,16.024
						c-0.315,4.909-4.21,8.786-8.152,11.727c-3.942,2.941-8.364,5.651-10.663,9.999c-3.285,6.213-1.29,13.767-1.774,20.779
						c-0.648,9.372-6.39,18.405-14.931,22.321c-8.54,3.916-19.558,2.137-25.943-4.755c-6.385-6.892-7.138-18.542-1.174-25.802
						c2.57-3.129,6.082-5.319,9.071-8.051c2.99-2.731,5.59-6.408,5.362-10.451c-0.288-5.114-4.81-8.791-7.536-13.129
						c-3.243-5.162-3.956-11.835-1.877-17.566c2.079-5.73,6.905-10.394,12.703-12.276c4.513-1.464,10.224-1.827,12.392-6.047
						c1.423-2.769,0.598-6.186-0.864-8.934c-1.462-2.749-3.52-5.174-4.723-8.045c-3.617-8.624,2.15-19.284,10.843-22.733
						C173.634,173.474,190.401,184.697,190.401,184.697z"/>
				</g>
				<path style="fill:#D42727;" d="M322.382,298.934c0,0,6.757,17.399,1.52,35.138c0,0,7.771,2.871,18.752-2.196
					c0,0,4.899-22.13-4.055-34.462L322.382,298.934z"/>
				<path style="fill:#E54A4A;" d="M220.08,252.621c0,5.272,2.576,9.546,5.753,9.546c3.177,0,5.753-4.273,5.753-9.546
					c0-5.271-3.491-14.121-6.668-14.121C221.741,238.5,220.08,247.35,220.08,252.621z"/>
			</g>
		</g>
		<g style="clip-path:url(#SVGID_00000134945894870564016060000000155395397268164796_);">
			<defs>
				<path id="SVGID_00000044152028331588954020000010324267872647581874_" d="M632.309,531.608c0,0-16.601-96.013,45.827-157.31
					C678.136,374.298,710.736,485.605,632.309,531.608z"/>
			</defs>
			<clipPath id="SVGID_00000049932939836998959320000008242759475357336969_">
				<use xlink:href="#SVGID_00000044152028331588954020000010324267872647581874_"  style="overflow:visible;"/>
			</clipPath>
			<path style="clip-path:url(#SVGID_00000049932939836998959320000008242759475357336969_);fill:#7BE7D9;" d="M632.309,531.608
				c0,0-16.601-96.013,45.827-157.31C678.136,374.298,710.736,485.605,632.309,531.608z"/>
			<g style="clip-path:url(#SVGID_00000049932939836998959320000008242759475357336969_);">
				<g>
					<path style="fill:#FFFFFF;" d="M678.81,368.693c-14.437,59.557-31.472,118.458-50.988,176.549
						c-0.405,1.205,1.498,1.722,1.9,0.523c19.517-58.09,36.552-116.991,50.989-176.548
						C681.01,367.985,679.109,367.459,678.81,368.693L678.81,368.693z"/>
				</g>
			</g>
			<g style="clip-path:url(#SVGID_00000049932939836998959320000008242759475357336969_);">
				<g>
					<path style="fill:#FFFFFF;" d="M648.201,486.505c24.004-1.463,41.03-17.898,54.583-36.264c0.754-1.022-0.956-2.006-1.702-0.995
						c-13.096,17.748-29.636,33.871-52.881,35.288C646.941,484.61,646.933,486.583,648.201,486.505L648.201,486.505z"/>
				</g>
			</g>
			<g style="clip-path:url(#SVGID_00000049932939836998959320000008242759475357336969_);">
				<g>
					<path style="fill:#FFFFFF;" d="M653.412,470.88c21.23-7.055,40.28-22.744,46.819-44.716c0.362-1.218-1.539-1.738-1.901-0.523
						c-6.337,21.294-24.878,36.505-45.441,43.338C651.69,469.377,652.204,471.281,653.412,470.88L653.412,470.88z"/>
				</g>
			</g>
			<g style="clip-path:url(#SVGID_00000049932939836998959320000008242759475357336969_);">
				<g>
					<path style="fill:#FFFFFF;" d="M661.806,437.3c-9.689-11.02-13.515-25.505-9.543-39.74c0.342-1.224-1.56-1.746-1.9-0.523
						c-4.168,14.939-0.112,30.101,10.049,41.658C661.251,439.648,662.641,438.25,661.806,437.3L661.806,437.3z"/>
				</g>
			</g>
		</g>
		<g style="clip-path:url(#SVGID_00000134945894870564016060000000155395397268164796_);">
			<defs>
				<path id="SVGID_00000168102916073863290000000016686272191857936273_" d="M672.525,519.807c0,0,10.391-65.774,64.273-91.694
					C736.799,428.112,733.394,507.304,672.525,519.807z"/>
			</defs>
			<clipPath id="SVGID_00000070111028833783057810000003130074311734089400_">
				<use xlink:href="#SVGID_00000168102916073863290000000016686272191857936273_"  style="overflow:visible;"/>
			</clipPath>
			<path style="clip-path:url(#SVGID_00000070111028833783057810000003130074311734089400_);fill:#7BE7D9;" d="M672.525,519.807
				c0,0,10.391-65.774,64.273-91.694C736.799,428.112,733.394,507.304,672.525,519.807z"/>
			<g style="clip-path:url(#SVGID_00000070111028833783057810000003130074311734089400_);">
				<g>
					<path style="fill:#FFFFFF;" d="M738.444,424.673c-22.457,35.353-46.44,69.71-71.848,103.006
						c-0.526,0.688,0.643,1.36,1.163,0.68c25.407-33.296,49.391-67.652,71.848-103.006
						C740.073,424.619,738.908,423.942,738.444,424.673L738.444,424.673z"/>
				</g>
			</g>
			<g style="clip-path:url(#SVGID_00000070111028833783057810000003130074311734089400_);">
				<g>
					<path style="fill:#FFFFFF;" d="M692.772,494.135c15.885,4.193,30.293-2.478,43.158-11.39c0.708-0.49,0.035-1.658-0.681-1.163
						c-12.533,8.683-26.593,15.353-42.119,11.253C692.292,492.613,691.934,493.913,692.772,494.135L692.772,494.135z"/>
				</g>
			</g>
			<g style="clip-path:url(#SVGID_00000070111028833783057810000003130074311734089400_);">
				<g>
					<path style="fill:#FFFFFF;" d="M699.585,485.16c15.408,0.032,30.912-5.877,40.118-18.666c0.508-0.704-0.66-1.378-1.163-0.68
						c-8.918,12.389-24.063,18.029-38.955,17.999C698.718,483.811,698.717,485.158,699.585,485.16L699.585,485.16z"/>
				</g>
			</g>
			<g style="clip-path:url(#SVGID_00000070111028833783057810000003130074311734089400_);">
				<g>
					<path style="fill:#FFFFFF;" d="M712.412,465.399c-3.833-9.459-3.178-19.429,2.552-27.97c0.484-0.723-0.683-1.397-1.164-0.681
						c-5.901,8.8-6.641,19.249-2.688,29.008C711.434,466.551,712.737,466.204,712.412,465.399L712.412,465.399z"/>
				</g>
			</g>
		</g>
		<g style="clip-path:url(#SVGID_00000134945894870564016060000000155395397268164796_);">
			<defs>
				<path id="SVGID_00000135669877502706983670000017799294139005621164_" d="M130.798,531.608c0,0,16.601-96.013-45.827-157.31
					C84.971,374.298,52.37,485.605,130.798,531.608z"/>
			</defs>
			<clipPath id="SVGID_00000010294542480774909600000008049712541092208567_">
				<use xlink:href="#SVGID_00000135669877502706983670000017799294139005621164_"  style="overflow:visible;"/>
			</clipPath>
			<path style="clip-path:url(#SVGID_00000010294542480774909600000008049712541092208567_);fill:#7BE7D9;" d="M130.798,531.608
				c0,0,16.601-96.013-45.827-157.31C84.971,374.298,52.37,485.605,130.798,531.608z"/>
			<g style="clip-path:url(#SVGID_00000010294542480774909600000008049712541092208567_);">
				<g>
					<path style="fill:#FFFFFF;" d="M82.396,369.218c14.437,59.557,31.473,118.458,50.989,176.548
						c0.402,1.196,2.307,0.684,1.901-0.523c-19.516-58.091-36.552-116.992-50.989-176.549
						C83.998,367.461,82.096,367.982,82.396,369.218L82.396,369.218z"/>
				</g>
			</g>
			<g style="clip-path:url(#SVGID_00000010294542480774909600000008049712541092208567_);">
				<g>
					<path style="fill:#FFFFFF;" d="M114.905,484.534c-23.242-1.417-39.785-17.541-52.88-35.288
						c-0.745-1.01-2.456-0.027-1.702,0.995c13.552,18.366,30.58,34.801,54.583,36.264
						C116.172,486.582,116.167,484.611,114.905,484.534L114.905,484.534z"/>
				</g>
			</g>
			<g style="clip-path:url(#SVGID_00000010294542480774909600000008049712541092208567_);">
				<g>
					<path style="fill:#FFFFFF;" d="M110.218,468.978c-20.564-6.833-39.104-22.043-45.442-43.338
						c-0.361-1.213-2.264-0.696-1.901,0.523c6.539,21.972,25.589,37.661,46.819,44.716
						C110.9,471.28,111.418,469.377,110.218,468.978L110.218,468.978z"/>
				</g>
			</g>
			<g style="clip-path:url(#SVGID_00000010294542480774909600000008049712541092208567_);">
				<g>
					<path style="fill:#FFFFFF;" d="M102.695,438.694c10.162-11.558,14.217-26.72,10.05-41.658
						c-0.341-1.221-2.243-0.702-1.901,0.523c3.972,14.237,0.148,28.719-9.543,39.74
						C100.466,438.249,101.855,439.649,102.695,438.694L102.695,438.694z"/>
				</g>
			</g>
		</g>
		<g style="clip-path:url(#SVGID_00000134945894870564016060000000155395397268164796_);">
			<defs>
				<path id="SVGID_00000155134193356073890050000005067201996703979947_" d="M90.581,519.807c0,0-10.391-65.774-64.274-91.694
					C26.308,428.112,29.713,507.304,90.581,519.807z"/>
			</defs>
			<clipPath id="SVGID_00000165947747294816698210000010610576463823987841_">
				<use xlink:href="#SVGID_00000155134193356073890050000005067201996703979947_"  style="overflow:visible;"/>
			</clipPath>
			<path style="clip-path:url(#SVGID_00000165947747294816698210000010610576463823987841_);fill:#7BE7D9;" d="M90.581,519.807
				c0,0-10.391-65.774-64.274-91.694C26.308,428.112,29.713,507.304,90.581,519.807z"/>
			<g style="clip-path:url(#SVGID_00000165947747294816698210000010610576463823987841_);">
				<g>
					<path style="fill:#FFFFFF;" d="M23.499,425.353c22.457,35.354,46.44,69.71,71.848,103.006c0.519,0.681,1.69,0.01,1.164-0.68
						c-25.408-33.296-49.391-67.652-71.848-103.006C24.199,423.943,23.032,424.618,23.499,425.353L23.499,425.353z"/>
				</g>
			</g>
			<g style="clip-path:url(#SVGID_00000165947747294816698210000010610576463823987841_);">
				<g>
					<path style="fill:#FFFFFF;" d="M69.976,492.835c-15.521,4.099-29.588-2.572-42.12-11.253c-0.714-0.495-1.389,0.672-0.68,1.163
						c12.862,8.91,27.272,15.584,43.158,11.39C71.171,493.913,70.816,492.613,69.976,492.835L69.976,492.835z"/>
				</g>
			</g>
			<g style="clip-path:url(#SVGID_00000165947747294816698210000010610576463823987841_);">
				<g>
					<path style="fill:#FFFFFF;" d="M63.521,483.814c-14.895,0.03-30.035-5.607-38.956-17.999c-0.502-0.697-1.671-0.025-1.163,0.68
						c9.206,12.789,24.71,18.698,40.119,18.666C64.388,485.158,64.39,483.811,63.521,483.814L63.521,483.814z"/>
				</g>
			</g>
			<g style="clip-path:url(#SVGID_00000165947747294816698210000010610576463823987841_);">
				<g>
					<path style="fill:#FFFFFF;" d="M51.994,465.757c3.954-9.76,3.216-20.205-2.688-29.008c-0.48-0.716-1.648-0.042-1.163,0.681
						c5.729,8.541,6.384,18.511,2.552,27.97C50.369,466.202,51.672,466.552,51.994,465.757L51.994,465.757z"/>
				</g>
			</g>
		</g>
	</g>
</g>
<g id="DESIGNED_BY_FREEPIK">
	<g>
		<g id="XMLID_319_">
			<g id="XMLID_338_">
				<path id="XMLID_346_" style="fill:#A5B7C6;" d="M385.103,23.701c-0.432,0.442-0.803,0.931-1.107,1.453l-0.466-0.241
					c-0.066-0.298-0.349-0.503-0.659-0.467c-0.33,0.039-0.567,0.339-0.528,0.67c0.039,0.331,0.339,0.568,0.67,0.529
					c0.065-0.008,0.127-0.026,0.184-0.053l0.451,0.234c-0.251,0.554-0.433,1.139-0.539,1.744l0.746,0.131
					c0.23-1.306,0.85-2.506,1.792-3.472L385.103,23.701z"/>
				<path id="XMLID_345_" style="fill:#A5B7C6;" d="M390.592,21.398c-0.171,0-0.341,0.007-0.51,0.018l-0.073-0.626
					c0.188-0.149,0.296-0.39,0.266-0.645c-0.046-0.393-0.402-0.675-0.796-0.629c-0.393,0.047-0.674,0.402-0.628,0.796
					c0.03,0.254,0.189,0.461,0.405,0.563l0.073,0.624c-0.714,0.116-1.403,0.332-2.06,0.646l0.327,0.684
					c0.934-0.447,1.941-0.673,2.995-0.673c0.496,0,0.993,0.053,1.475,0.157l0.161-0.741
					C391.692,21.458,391.143,21.398,390.592,21.398z"/>
				<path id="XMLID_344_" style="fill:#A5B7C6;" d="M397.194,23.946c0.331-0.041,0.566-0.342,0.525-0.673
					c-0.04-0.331-0.342-0.565-0.672-0.525c-0.31,0.038-0.536,0.304-0.53,0.608l-0.416,0.363c-0.418-0.43-0.89-0.813-1.408-1.139
					l-0.403,0.641c1.134,0.715,2.02,1.726,2.563,2.926l0.69-0.313c-0.251-0.555-0.567-1.072-0.942-1.545l0.402-0.352
					C397.064,23.951,397.129,23.954,397.194,23.946z"/>
				<path id="XMLID_343_" style="fill:#A5B7C6;" d="M390.044,31.607c-0.386,0.023-0.774,0.034-1.157,0.034
					c-0.88,0-1.732-0.06-2.478-0.179c-0.39-0.063-0.846-0.155-1.27-0.292c1.046,1.86,3.069,3.125,5.388,3.125
					c2.855,0,5.263-1.916,5.95-4.504c-0.682,0.449-1.506,0.825-2.459,1.123C392.839,31.282,391.463,31.521,390.044,31.607z"/>
				<path id="XMLID_339_" style="fill:#A5B7C6;" d="M390.592,22.915c-3.353,0-6.08,2.666-6.08,5.943
					c0,0.426,0.047,0.849,0.138,1.262c0.674,0.482,2.706,0.89,5.348,0.73c2.879-0.173,5.297-0.957,6.672-2.158
					c-0.006-0.195-0.02-0.391-0.045-0.582C396.243,25.148,393.65,22.915,390.592,22.915z M388.433,29.43
					c-1.021,0-1.85-0.83-1.85-1.85c0-1.02,0.829-1.85,1.85-1.85c1.02,0,1.85,0.829,1.85,1.85
					C390.282,28.6,389.452,29.43,388.433,29.43z M393.17,28.521c-0.75,0-1.36-0.61-1.36-1.36s0.61-1.36,1.36-1.36
					s1.36,0.61,1.36,1.36S393.92,28.521,393.17,28.521z"/>
			</g>
			<path id="XMLID_336_" style="fill:#A5B7C6;" d="M406.595,24.782c-0.294-0.116-0.805-0.309-1.382-0.237
				c-0.551,0.068-0.844,0.341-0.844,1.007v0.865h2.228v1.718h-2.228v5.454h-1.932v-5.454h-1.34v-1.718h1.34v-0.888
				c0-1.681,0.896-2.783,2.568-2.783c0.643,0,1.157,0.122,1.59,0.309L406.595,24.782z"/>
			<path id="XMLID_334_" style="fill:#A5B7C6;" d="M411.298,28.114c-0.177-0.03-0.357-0.047-0.526-0.047
				c-0.895,0-1.51,0.548-1.51,1.614v3.907h-1.932v-7.172h1.872v0.785c0.452-0.674,1.141-0.978,2.022-0.978
				c0.414,0,0.848,0.128,1.094,0.337L411.298,28.114z"/>
			<path id="XMLID_331_" style="fill:#A5B7C6;" d="M418.965,29.992c0,0.222-0.015,0.488-0.037,0.651h-5.084
				c0.207,1.036,0.933,1.487,1.843,1.487c0.621,0,1.295-0.251,1.813-0.688l1.133,1.243c-0.814,0.747-1.851,1.088-3.057,1.088
				c-2.198,0-3.723-1.495-3.723-3.753c0-2.257,1.481-3.797,3.626-3.797C417.544,26.225,418.958,27.757,418.965,29.992z
				 M413.851,29.326h3.175c-0.177-0.918-0.732-1.437-1.561-1.437C414.554,27.89,414.021,28.438,413.851,29.326z"/>
			<path id="XMLID_328_" style="fill:#A5B7C6;" d="M426.618,29.992c0,0.222-0.015,0.488-0.037,0.651h-5.085
				c0.208,1.036,0.933,1.487,1.844,1.487c0.621,0,1.295-0.251,1.814-0.688l1.132,1.243c-0.814,0.747-1.851,1.088-3.057,1.088
				c-2.198,0-3.723-1.495-3.723-3.753c0-2.257,1.48-3.797,3.626-3.797C425.197,26.225,426.611,27.757,426.618,29.992z
				 M421.504,29.326h3.176c-0.178-0.918-0.733-1.437-1.563-1.437C422.207,27.89,421.674,28.438,421.504,29.326z"/>
			<path id="XMLID_325_" style="fill:#A5B7C6;" d="M434.964,30c0,2.153-1.495,3.774-3.471,3.774c-0.963,0-1.644-0.378-2.109-0.933
				v3.708h-1.925V26.417h1.888v0.792c0.466-0.584,1.154-0.984,2.139-0.984C433.469,26.225,434.964,27.846,434.964,30z M429.287,30
				c0,1.132,0.747,1.976,1.843,1.976c1.14,0,1.851-0.881,1.851-1.976c0-1.096-0.711-1.977-1.851-1.977
				C430.034,28.023,429.287,28.867,429.287,30z"/>
			<path id="XMLID_322_" style="fill:#A5B7C6;" d="M438.067,24.071c0,0.695-0.54,1.229-1.236,1.229
				c-0.695,0-1.229-0.533-1.229-1.229c0-0.696,0.533-1.244,1.229-1.244C437.527,22.827,438.067,23.375,438.067,24.071z
				 M437.809,33.589h-1.932v-7.172h1.932V33.589z"/>
			<path id="XMLID_320_" style="fill:#A5B7C6;" d="M441.032,28.971l2.701-2.554h2.369l-3.479,3.375l3.501,3.797h-2.376l-2.716-2.901
				v2.901h-1.932V22.932h1.932V28.971z"/>
		</g>
		<g>
			<path style="fill:#A5B7C6;" d="M309.413,33.524V32.47c-0.527,0.718-1.392,1.23-2.388,1.23c-1.846,0-3.149-1.406-3.149-3.706
				c0-2.256,1.289-3.721,3.149-3.721c0.952,0,1.816,0.469,2.388,1.245v-3.765h1.099v9.77H309.413z M309.413,31.605v-3.208
				c-0.396-0.615-1.245-1.143-2.124-1.143c-1.421,0-2.271,1.172-2.271,2.739c0,1.567,0.85,2.725,2.271,2.725
				C308.167,32.719,309.017,32.221,309.413,31.605z"/>
			<path style="fill:#A5B7C6;" d="M311.932,29.979c0-2.051,1.464-3.706,3.486-3.706c2.139,0,3.398,1.67,3.398,3.794v0.278h-5.728
				c0.088,1.333,1.025,2.446,2.549,2.446c0.806,0,1.626-0.322,2.183-0.894l0.527,0.718c-0.703,0.703-1.655,1.084-2.813,1.084
				C313.44,33.7,311.932,32.191,311.932,29.979z M315.403,27.182c-1.509,0-2.256,1.274-2.314,2.358h4.643
				C317.718,28.485,317.015,27.182,315.403,27.182z"/>
			<path style="fill:#A5B7C6;" d="M319.607,32.587l0.571-0.791c0.469,0.542,1.362,1.011,2.329,1.011c1.084,0,1.67-0.513,1.67-1.216
				c0-1.714-4.38-0.659-4.38-3.281c0-1.099,0.952-2.036,2.637-2.036c1.201,0,2.051,0.454,2.622,1.025l-0.513,0.762
				c-0.424-0.513-1.201-0.893-2.109-0.893c-0.967,0-1.567,0.483-1.567,1.113c0,1.553,4.379,0.527,4.379,3.281
				c0,1.187-0.952,2.139-2.783,2.139C321.306,33.7,320.325,33.349,319.607,32.587z"/>
			<path style="fill:#A5B7C6;" d="M326.477,24.706c0-0.41,0.337-0.747,0.732-0.747c0.41,0,0.747,0.337,0.747,0.747
				c0,0.41-0.336,0.732-0.747,0.732C326.814,25.438,326.477,25.116,326.477,24.706z M326.667,33.524v-7.075h1.099v7.075H326.667z"/>
			<path style="fill:#A5B7C6;" d="M329.582,35.341l0.557-0.82c0.586,0.703,1.289,0.967,2.3,0.967c1.172,0,2.27-0.571,2.27-2.124
				v-1.011c-0.512,0.718-1.376,1.26-2.373,1.26c-1.845,0-3.149-1.377-3.149-3.662c0-2.27,1.289-3.677,3.149-3.677
				c0.952,0,1.802,0.469,2.373,1.245v-1.069h1.099v6.87c0,2.344-1.641,3.076-3.369,3.076
				C331.237,36.396,330.417,36.161,329.582,35.341z M334.708,31.488v-3.091c-0.381-0.615-1.23-1.143-2.109-1.143
				c-1.421,0-2.271,1.128-2.271,2.695c0,1.553,0.849,2.695,2.271,2.695C333.478,32.646,334.328,32.104,334.708,31.488z"/>
			<path style="fill:#A5B7C6;" d="M342.413,33.524v-4.629c0-1.245-0.629-1.641-1.582-1.641c-0.865,0-1.685,0.527-2.095,1.099v5.171
				h-1.099v-7.075h1.099v1.025c0.498-0.586,1.464-1.201,2.519-1.201c1.479,0,2.256,0.747,2.256,2.285v4.966H342.413z"/>
			<path style="fill:#A5B7C6;" d="M344.933,29.979c0-2.051,1.465-3.706,3.486-3.706c2.138,0,3.398,1.67,3.398,3.794v0.278h-5.728
				c0.088,1.333,1.025,2.446,2.549,2.446c0.806,0,1.625-0.322,2.183-0.894l0.527,0.718c-0.703,0.703-1.655,1.084-2.813,1.084
				C346.441,33.7,344.933,32.191,344.933,29.979z M348.404,27.182c-1.509,0-2.256,1.274-2.315,2.358h4.643
				C350.718,28.485,350.015,27.182,348.404,27.182z"/>
			<path style="fill:#A5B7C6;" d="M358.35,33.524V32.47c-0.527,0.718-1.392,1.23-2.388,1.23c-1.845,0-3.149-1.406-3.149-3.706
				c0-2.256,1.289-3.721,3.149-3.721c0.952,0,1.817,0.469,2.388,1.245v-3.765h1.099v9.77H358.35z M358.35,31.605v-3.208
				c-0.396-0.615-1.245-1.143-2.124-1.143c-1.421,0-2.271,1.172-2.271,2.739c0,1.567,0.85,2.725,2.271,2.725
				C357.105,32.719,357.954,32.221,358.35,31.605z"/>
			<path style="fill:#A5B7C6;" d="M364.692,33.524v-9.77h1.099v3.765c0.572-0.776,1.421-1.245,2.388-1.245
				c1.846,0,3.149,1.465,3.149,3.721c0,2.3-1.304,3.706-3.149,3.706c-0.996,0-1.86-0.513-2.388-1.23v1.055H364.692z M367.9,32.719
				c1.435,0,2.285-1.157,2.285-2.725c0-1.567-0.85-2.739-2.285-2.739c-0.864,0-1.729,0.527-2.109,1.143v3.208
				C366.171,32.221,367.036,32.719,367.9,32.719z"/>
			<path style="fill:#A5B7C6;" d="M372.528,35.297c0.161,0.073,0.425,0.117,0.601,0.117c0.483,0,0.805-0.161,1.055-0.747
				l0.468-1.069l-2.959-7.148h1.187l2.358,5.801l2.344-5.801h1.201l-3.545,8.511c-0.425,1.025-1.143,1.421-2.08,1.436
				c-0.234,0-0.601-0.044-0.805-0.103L372.528,35.297z"/>
		</g>
	</g>
</g>
</svg>
